<svg width="256" height="256" viewBox="0 0 256 256" fill="none" xmlns="http://www.w3.org/2000/svg">
  <defs>
    <linearGradient id="campusFixCore" x1="84" y1="84" x2="172" y2="172" gradientUnits="userSpaceOnUse">
      <stop stop-color="#14B8A6"/>
      <stop offset="1" stop-color="#0F766E"/>
    </linearGradient>
    <filter id="campusFixShadow" x="58" y="58" width="140" height="140" filterUnits="userSpaceOnUse" color-interpolation-filters="sRGB">
      <feDropShadow dx="0" dy="10" stdDeviation="12" flood-color="#14B8A6" flood-opacity="0.28"/>
    </filter>
  </defs>

  <rect x="20" y="20" width="216" height="216" rx="56" stroke="#5EEAD4" stroke-width="6" stroke-dasharray="10 12" opacity="0.75"/>
  <rect x="38" y="38" width="180" height="180" rx="48" fill="#14B8A6" opacity="0.09"/>

  <g filter="url(#campusFixShadow)">
    <rect x="76" y="76" width="104" height="104" rx="34" fill="url(#campusFixCore)"/>
  </g>

  <circle cx="190" cy="66" r="24" fill="#FBBF24"/>
  <path d="M190 46L179 68H191L186 86L201 61H189L190 46Z" fill="white"/>

  <circle cx="62" cy="192" r="20" fill="#34D399"/>
  <path d="M62 181L70 184V190C70 195 66.8 199.7 62 201C57.2 199.7 54 195 54 190V184L62 181Z" fill="white"/>

  <path d="M138.9 95.9C143.8 91 151.7 91 156.6 95.9L160.1 99.4C161.8 101.1 161.8 103.8 160.1 105.5L152 113.6L142.4 104L138.9 107.5L147 115.6L124.3 138.3C120.7 141.9 115 142.2 111 139L94.1 155.9C91.5 158.5 87.3 158.5 84.7 155.9C82.1 153.3 82.1 149.1 84.7 146.5L101.6 129.6C98.4 125.6 98.7 119.9 102.3 116.3L125 93.6L133.1 101.7L136.6 98.2L127 88.6L135.1 80.5C136.8 78.8 139.5 78.8 141.2 80.5L144.7 84C149.6 88.9 149.6 96.8 144.7 101.7L138.9 95.9Z" fill="white"/>
</svg>
